PathFileType	4	(X/Y/Z)	c:/Users/goper/Files/vsCode/490R/osim_files/C06/C06_SSWS_05.trc
DataRate	CameraRate	NumFrames	NumMarkers	Units                	OrigDataRate	OrigDataStartFrame	OrigNumFrames
250.00	250.00	8	36	mm	250.0	781	2082
                Frame#	Time	LPSIS			LASIS			LTH1			LTH2			LTH3			LTH4			LLFE			LMFE			LSH1			LSH2			LSH3			LSH4			LLMAL			LMMAL			LCAL			LMTP5			LTOE			LMTP1			RPSIS			RASIS			RTH1			RTH2			RTH3			RTH4			RLFE			RMFE			RSH1			RSH2			RSH3			RSH4			RLMAL			RMMAL			RCAL			RMTP1			RTOE			RMTP5		
		X1	Y1	Z1	X2	Y2	Z2	X3	Y3	Z3	X4	Y4	Z4	X5	Y5	Z5	X6	Y6	Z6	X7	Y7	Z7	X8	Y8	Z8	X9	Y9	Z9	X10	Y10	Z10	X11	Y11	Z11	X12	Y12	Z12	X13	Y13	Z13	X14	Y14	Z14	X15	Y15	Z15	X16	Y16	Z16	X17	Y17	Z17	X18	Y18	Z18	X19	Y19	Z19	X20	Y20	Z20	X21	Y21	Z21	X22	Y22	Z22	X23	Y23	Z23	X24	Y24	Z24	X25	Y25	Z25	X26	Y26	Z26	X27	Y27	Z27	X28	Y28	Z28	X29	Y29	Z29	X30	Y30	Z30	X31	Y31	Z31	X32	Y32	Z32	X33	Y33	Z33	X34	Y34	Z34	X35	Y35	Z35	X36	Y36	Z36

781	3.12000	1138.12219	975.85687	212.90126	960.12323	941.91412	307.87979	1077.06580	749.04370	374.50082	1080.52295	686.28003	369.63199	1003.52649	739.56927	356.64590	1016.70490	679.06750	353.41318	1142.72888	447.47525	332.12622	1140.26953	423.40536	218.39275	1270.39526	416.21014	346.05505	1296.15247	380.87360	342.33557	1222.05225	372.61557	350.22638	1260.07092	345.10468	346.20557	1457.49585	203.45309	297.66666	1431.40637	216.15192	222.85863	1493.30847	260.75513	259.71445	1483.87073	72.65858	293.58340	1437.58167	49.74493	226.70084	1459.10034	80.06860	181.33449	1143.81555	976.17419	140.43036	956.90076	966.54700	72.23066	977.90125	763.36481	-13.46837	948.83209	710.29950	-6.65684	911.75616	794.05219	11.92765	890.67877	734.92010	15.54706	836.24176	463.45206	63.62677	838.59351	483.60501	168.16110	875.05109	383.42053	33.91188	871.11176	335.91003	35.61036	818.16815	380.25220	58.23783	821.81519	333.88544	56.74210	862.59369	90.67077	90.27855	857.38367	114.53507	166.93466	931.82501	69.05914	133.07562	729.10626	38.91757	183.95090	706.93414	58.15589	139.91600	748.77319	35.56071	68.83887
782	3.12400	1132.88184	976.34363	212.72673	955.15430	942.06201	307.86838	1070.26782	748.88647	374.35083	1073.08240	686.11469	369.58374	996.65405	740.21124	356.42209	1009.17773	679.61273	353.32413	1132.73035	446.86771	332.53540	1129.31421	422.01041	219.13593	1260.14783	416.32520	346.81488	1286.50244	381.24005	342.83682	1214.62195	372.03265	349.99884	1250.44043	345.37268	346.11359	1449.11865	205.71037	298.53503	1423.59802	217.78577	223.44337	1482.40637	265.05127	260.96252	1479.34790	76.00049	293.99338	1432.75134	50.85086	227.14537	1455.22620	83.16954	181.65668	1138.48132	976.88971	140.31325	951.61682	967.54327	71.70878	973.10370	763.88000	-13.92554	944.68018	710.59790	-6.99951	906.53333	793.92938	11.58379	886.69122	735.21820	14.58079	833.31293	463.28644	63.75976	836.23694	483.25262	168.49597	872.84167	383.32840	34.40469	868.94269	335.46463	36.20071	815.99860	379.92041	58.41826	819.94495	333.56882	57.03498	862.43707	90.76264	90.38529	857.06329	114.44612	167.13858	931.80823	69.13320	133.14734	729.01184	38.79269	184.01610	706.82452	57.97420	140.02144	748.71301	35.56270	68.87933
783	3.12800	1127.62671	976.86279	212.47739	949.58630	943.43951	307.45242	1063.46631	748.76874	374.17194	1065.61829	685.96539	369.53073	989.74652	740.74005	355.85007	1003.31543	682.36884	354.69098	1122.31934	446.01364	333.14352	1118.37354	420.82843	219.87222	1249.95813	416.43854	347.29950	1276.58545	381.56619	343.21378	1205.20203	371.09729	350.62375	1240.70312	345.38248	346.70551	1439.73499	207.28558	299.35162	1413.66309	219.12573	224.05946	1470.89197	268.27774	261.62286	1474.50183	79.28545	294.32275	1427.44397	52.06229	227.61165	1449.65552	84.78298	182.41531	1133.21484	977.58862	140.16823	946.73816	968.99353	70.27940	968.45325	764.31482	-14.20336	940.54529	710.59552	-7.11241	902.39691	794.63312	10.06993	881.71204	734.02557	14.96188	830.52441	462.93448	63.95108	833.92737	482.87549	168.77919	870.89252	383.20908	34.95196	867.60938	335.71741	36.64295	814.94855	380.68130	57.44270	818.09192	333.15424	57.32458	862.25708	90.82491	90.62550	856.80737	114.40532	167.33142	931.77368	69.20326	133.19005	728.89130	38.68451	184.05017	706.71527	57.80844	140.06140	748.69543	35.54316	68.89515
784	3.13200	1122.50891	977.43500	212.16191	944.45807	944.51746	306.47229	1056.77002	748.77100	373.95514	1058.16455	685.88458	369.44150	982.98370	741.59924	355.90869	994.09552	680.64203	352.84808	1111.91333	445.33029	333.55521	1107.40015	419.82190	220.53581	1239.63721	416.48059	347.74252	1266.48914	381.75409	343.65463	1196.81458	370.10611	350.47705	1230.65027	345.35037	346.89163	1431.28906	210.12195	300.17911	1404.53235	220.58740	224.50670	1459.66272	271.31757	262.19885	1469.53540	82.51156	294.62006	1421.66431	53.36414	228.09929	1443.87012	86.70896	183.08772	1127.95764	978.30591	139.86124	941.62488	969.84741	69.67112	963.89996	764.66656	-14.26828	939.09705	710.97137	-8.26222	896.52545	793.20380	10.75039	877.38788	733.31543	14.59336	827.81549	462.63190	64.06584	831.82220	482.55820	169.09177	869.80133	383.48746	35.13689	866.10498	335.50507	37.21848	811.98083	379.05789	58.75232	816.57996	332.71484	57.61642	862.11859	90.86115	90.82570	856.51483	114.33517	167.52208	931.73419	69.26388	133.21738	728.82471	38.54638	184.45160	706.62158	57.60603	140.08694	748.64801	35.53143	68.88441
785	3.13600	1117.55664	978.00769	211.74791	940.89374	946.07251	306.51468	1050.09778	748.79773	373.77634	1050.83679	685.91174	369.39880	976.24823	742.38684	355.74298	986.64154	681.30035	352.72415	1101.56665	444.63156	334.27304	1096.55042	419.03903	221.01215	1229.13660	416.33969	347.93747	1256.30798	381.93280	344.06415	1184.55310	371.48520	351.76868	1221.32751	346.39941	347.96533	1422.93127	212.19789	301.20627	1395.24182	222.06261	224.81764	1448.54321	274.11395	262.54352	1464.16516	85.63793	294.87180	1415.41675	54.74136	228.60794	1438.12195	88.49430	183.56146	1122.78223	978.97876	139.51134	935.12915	969.39288	70.74544	959.55615	764.76593	-14.50603	935.14740	710.77991	-8.18056	891.78143	792.65045	10.27504	874.06860	733.41223	13.42606	825.16199	462.27737	64.39259	829.97900	482.69641	169.32118	867.53625	382.81833	36.05272	864.68646	335.26300	37.86130	810.20410	378.56787	58.89620	814.91406	332.24884	57.93681	862.02173	90.53957	91.35102	856.23029	114.28082	167.68675	931.71179	69.32619	133.22873	728.76666	38.50570	184.47717	706.54883	57.40647	140.08382	748.61737	35.51566	68.89194
786	3.14000	1112.42346	978.52338	211.31029	936.04535	947.10272	306.25586	1043.49500	748.93481	373.53641	1043.59290	686.01941	369.36221	969.53448	743.33405	355.52393	979.34399	682.16632	352.83414	1091.12756	444.25177	334.44421	1085.72583	418.38882	221.44696	1218.31360	417.52823	347.71753	1246.00610	382.09274	344.46747	1174.22620	371.00919	352.70142	1210.53564	345.42520	347.81973	1412.57495	213.47948	301.48767	1385.91138	223.55183	225.21521	1437.58496	276.58438	262.75177	1458.47546	88.55497	294.93851	1408.70569	56.17887	229.13716	1432.18689	90.23427	183.74744	1117.71423	979.75183	139.08183	930.66394	970.32263	69.73055	954.75446	764.55566	-14.19604	931.47729	710.67328	-8.12183	887.03351	792.04053	9.87935	869.47534	731.83954	13.79667	823.12811	461.87253	64.19278	826.89722	482.12204	170.70497	866.54926	382.74411	36.33813	863.14716	334.69818	38.54012	809.28082	378.76605	58.41880	813.62628	331.70142	58.23377	861.89758	90.86885	91.17985	855.95648	114.21099	167.86893	931.70801	69.35430	133.24928	728.72235	38.42387	184.49716	706.53729	57.22390	140.15120	748.56805	35.48021	68.89251
787	3.14400	1107.40161	979.06714	210.83156	930.15399	946.93390	306.13565	1036.99170	749.09833	373.31808	1035.16992	685.49982	368.97522	963.06067	744.28455	355.46564	973.82544	685.25800	354.64999	1080.60327	443.64716	335.11282	1074.99084	417.93585	221.81813	1207.67944	417.48386	348.07300	1235.90039	384.36740	343.44989	1163.88623	370.82617	353.22040	1201.64404	346.13702	347.04068	1403.80432	215.40591	302.01413	1376.44092	224.94910	225.55573	1427.00305	279.45422	262.58594	1452.28857	91.36049	294.92084	1401.53577	57.66161	229.68668	1425.17273	91.87305	184.12959	1112.32947	980.23273	138.68513	925.86346	971.69244	68.40767	950.82098	764.71228	-14.32535	927.76300	710.45917	-7.97135	882.56989	791.48260	9.35276	865.56226	731.16260	13.43198	820.91968	461.47516	64.30752	826.08844	481.18176	170.08467	865.08710	382.59439	36.93506	862.52045	334.88953	38.94042	807.14801	377.42206	59.39711	812.35321	331.14270	58.46793	861.80597	90.89687	91.34521	855.67657	114.09917	168.08534	931.73071	69.37761	133.27559	728.72040	38.33168	184.54352	706.51630	57.10209	140.20787	748.57855	35.47605	68.88663
788	3.14800	1102.69604	979.80035	210.22672	925.80414	948.41772	305.92740	1030.39355	749.28192	373.02896	1029.11548	686.47260	369.26642	956.40814	745.24652	355.33817	964.74591	683.81677	352.83618	1070.22913	443.58160	335.25443	1064.40430	417.68597	222.05153	1197.12134	417.38162	348.56097	1224.40723	384.15192	343.96512	1153.28638	370.63544	353.83142	1188.50757	347.18201	348.17053	1395.65637	218.03094	302.48413	1366.93225	226.31335	225.72136	1416.31299	281.51553	262.40076	1445.62146	93.98911	295.04764	1393.91150	59.17451	230.25601	1417.73328	93.62312	184.36243	1107.57861	981.11395	138.12683	920.72455	972.33612	67.86121	946.78931	764.75952	-14.13132	924.29840	710.37915	-7.77092	878.21216	790.95337	8.96416	862.54279	731.26892	12.29249	818.89142	461.12152	64.26326	823.87677	481.23187	169.84865	863.98859	382.39249	37.47005	861.22266	334.24847	39.64624	806.54010	377.85153	58.54753	812.57776	332.23694	57.04616	861.73413	90.93706	91.57063	855.56494	114.06629	168.29654	931.73694	69.34500	133.31879	728.66547	38.24686	184.56412	706.52753	56.99730	140.43004	748.65161	35.13106	69.40363
